<?xml version="1.0" encoding="utf-8"?>
<!-- Generator: Adobe Illustrator 27.5.0, SVG Export Plug-In . SVG Version: 6.00 Build 0)  -->
<svg version="1.1" id="Layer_1" xmlns="http://www.w3.org/2000/svg" xmlns:xlink="http://www.w3.org/1999/xlink" x="0px" y="0px"
	 viewBox="0 0 95 18" style="enable-background:new 0 0 95 18;" xml:space="preserve">
<style type="text/css">
	.st0{fill-rule:evenodd;clip-rule:evenodd;fill:#DB0032;}
</style>
<path class="st0" d="M62.2,8.5V17h1.1h1.1l0-5.9l0-5.9L65,5.7c0.3,0.3,1.1,1.2,1.9,1.9c1.6,1.7,2.9,2.9,6.1,6.2
	c1.3,1.3,2.7,2.7,3.1,3.1c0.5,0.5,0.7,0.7,0.7,0.7c0,0,0-3.8,0-8.4l0-8.4l-1.1,0l-1.1,0v5.8c0,3.2,0,5.8,0,5.8c0,0-3.3-3.3-7.3-7.3
	c-3.1-3.1-5-5-5-5.1C62.2,0,62.2,1.2,62.2,8.5z M49.8,1.7c-0.4,0.8-0.8,1.8-1,2.3c-0.2,0.4-0.4,0.8-0.4,0.8c0,0-0.2,0.4-0.4,0.9
	c-0.2,0.5-0.6,1.2-0.8,1.7c-0.2,0.4-0.5,1.1-0.7,1.5s-0.3,0.7-0.3,0.7c0,0-0.2,0.5-0.5,1.1c-0.3,0.6-0.5,1.1-0.5,1.1
	c0,0-0.1,0.3-0.3,0.7c-0.3,0.7-0.4,1-1,2.1c-0.1,0.3-0.4,0.9-0.7,1.4c-0.2,0.5-0.4,0.9-0.4,1c0,0,0.4,0.1,1.1,0.1h1.1l0.4-0.9
	c0.2-0.5,0.6-1.3,0.8-1.8l0.4-1l3.6,0l3.6,0l0.2,0.5c0.1,0.3,0.4,0.9,0.6,1.4c0.2,0.5,0.5,1.1,0.6,1.3l0.2,0.5h1.2
	c0.6,0,1.2,0,1.2,0c0,0-0.1-0.4-0.3-0.8c-0.3-0.6-1-2.2-1.8-4c-0.2-0.4-0.6-1.4-1.8-4c-0.1-0.3-0.3-0.7-0.4-0.9s-0.4-0.9-0.7-1.4
	c-0.3-0.6-0.5-1.2-0.6-1.4c-0.1-0.2-0.3-0.7-0.5-1.1S51.3,2,51,1.4c-0.3-0.7-0.6-1.2-0.6-1.2C50.4,0.2,50.1,0.8,49.8,1.7z M4.6,0.6
	c-0.9,0.1-1.7,0.5-2.3,1C0.4,3.1,0.3,6,2,7.7c0.7,0.7,1.2,0.9,3.1,1.6c1.6,0.5,1.9,0.7,2.3,1c0.8,0.6,1.1,1.3,1,2.3
	c0,0.6-0.2,1-0.5,1.4c-0.5,0.8-1.3,1.1-2.3,1.2c-1.4,0.1-2.7-0.6-3.3-1.8c-0.1-0.2-0.2-0.4-0.2-0.4c0-0.1,0.1-0.1-1.3,0.1
	c-0.5,0.1-0.9,0.1-0.9,0.1c-0.1,0,0,0.4,0.2,0.8c0.9,2.3,3.6,3.7,6.3,3.2c1-0.2,1.8-0.5,2.6-1.2c0.7-0.5,1.2-1.4,1.5-2.2
	c0.1-0.3,0.2-1.2,0.2-1.5c0-0.3-0.1-1.1-0.2-1.5c-0.4-1.2-1.4-2.3-2.6-2.9c-0.2-0.1-1-0.4-1.8-0.7C4.3,6.6,4,6.5,3.6,6.1
	C3.2,5.6,3,5.3,3.1,4.6c0-0.5,0.2-1,0.6-1.3c0.5-0.5,1-0.7,1.9-0.6c0.4,0,0.6,0.1,0.9,0.2c0.4,0.2,0.9,0.7,1,1C7.4,3.9,7.5,4,7.5,4
	c0,0,0.5-0.2,1-0.5c0.6-0.3,1-0.5,1-0.6c0-0.3-1-1.4-1.5-1.7C7,0.7,5.6,0.4,4.6,0.6z M14,0.8c0,0,0,0.5,0,1c0,0.9,0,1,0.1,1
	c0,0,0.9,0,1.9,0l1.9,0l0,7l0,7h1.1H20v-7c0-3.9,0-7,0-7c0,0,0.9,0,2,0l1.9,0v-1v-1l-5,0C16.2,0.8,14,0.8,14,0.8z M29.3,0.8
	c0,0,0,3.7,0,8.1l0,8l1.1,0l1.1,0l0-3.3l0-3.3l0.4,0l0.4,0l0.5,0.7c0.3,0.4,0.7,1,0.9,1.4c0.6,1,2.3,3.5,2.7,4.1l0.3,0.5h1.3
	c0.7,0,1.3,0,1.3,0c0,0-0.2-0.3-0.4-0.7c-0.9-1.4-2.1-3.2-2.4-3.7c-0.2-0.3-0.5-0.8-0.8-1.1c-0.2-0.3-0.5-0.8-0.6-0.9
	c-0.1-0.2-0.2-0.3-0.2-0.4c0,0,0.2-0.1,0.5-0.2c1.7-0.6,2.8-2,3-3.8c0.2-1.5-0.3-2.9-1.3-3.9c-0.7-0.7-1.7-1.2-2.9-1.3
	C33.3,0.7,29.4,0.7,29.3,0.8z M82.4,0.8c0,0,0,3.7,0,8.1V17h2.4c1.9,0,2.5,0,3.1-0.1c2.9-0.4,5.2-2,6.3-4.4c1.2-2.6,1.1-5.6-0.4-8
	c-0.4-0.7-1.4-1.7-2-2.1c-0.8-0.5-1.7-1-2.6-1.2c-1.1-0.3-1.9-0.4-4.5-0.4C83.4,0.8,82.4,0.8,82.4,0.8z M33.2,2.9
	c0.4,0,0.9,0.1,1,0.1C35,3.2,35.6,3.8,36,4.5c0.2,0.4,0.2,0.5,0.2,0.9c0,1.1-0.5,1.9-1.4,2.4c-0.5,0.2-0.8,0.3-2,0.3l-1.1,0l0-2.6
	c0-1.7,0-2.6,0-2.7c0,0,0.2,0,0.5,0C32.3,2.9,32.8,2.9,33.2,2.9z M85.9,2.9c0.6,0,1.3,0,1.6,0.1c2.4,0.3,4.3,1.9,5,4.1
	c0.2,0.8,0.3,1.9,0.2,2.8c-0.3,2.2-1.9,4-4,4.7c-0.8,0.2-1.4,0.3-2.7,0.3l-1.2,0l0-6c0-6,0-6.1,0.1-6C84.8,2.9,85.3,2.9,85.9,2.9z
	 M50.8,5.9c0.1,0.3,0.3,0.8,0.5,1.2c0.2,0.4,0.3,0.7,0.3,0.7c0,0,0.2,0.4,0.4,0.8c0.2,0.4,0.4,0.8,0.4,0.8c0,0,0.2,0.4,0.4,0.9
	c0.2,0.5,0.4,0.9,0.4,0.9c0,0-1.2,0-2.7,0c-1.5,0-2.7,0-2.7,0s0.1-0.3,0.3-0.6c0.4-0.9,0.6-1.4,1-2.2c0.3-0.7,1-2.2,1.3-2.8
	C50.4,5.2,50.4,5.1,50.8,5.9z"/>
</svg>
